<?xml version="1.0" encoding="UTF-8"?>
<svg width="210px" height="100px" viewBox="0 0 210 100" version="1.1" xmlns="http://www.w3.org/2000/svg" xmlns:xlink="http://www.w3.org/1999/xlink">
    <title>DataDisplay / Empty / Search</title>
    <g id="DataDisplay-/-Empty-/-Search" stroke="none" stroke-width="1" fill="none" fill-rule="evenodd">
        <g id="Illustration-/-Search" transform="translate(2.000000, 0.000000)">
            <path d="M42,96 L158,96 C159.104569,96 160,96.8954305 160,98 C160,99.1045695 159.104569,100 158,100 L42,100 C40.8954305,100 40,99.1045695 40,98 C40,96.8954305 40.8954305,96 42,96 Z" id="Rectangle-4" fill="#E3E3E3"></path>
            <g id="Icon" transform="translate(74.000000, 20.000000)">
                <path d="M34.7279221,42.7279221 L54.7279221,42.7279221 C55.8324916,42.7279221 56.7279221,43.6233526 56.7279221,44.7279221 C56.7279221,45.8324916 55.8324916,46.7279221 54.7279221,46.7279221 L34.7279221,46.7279221 C33.6233526,46.7279221 32.7279221,45.8324916 32.7279221,44.7279221 C32.7279221,43.6233526 33.6233526,42.7279221 34.7279221,42.7279221 Z" id="Rectangle-4" fill="#CCCCCC" transform="translate(44.727922, 44.727922) rotate(-315.000000) translate(-44.727922, -44.727922) "></path>
                <path d="M22,-2 C8.745166,-2 -2,8.745166 -2,22 C-2,35.254834 8.745166,46 22,46 C35.254834,46 46,35.254834 46,22 C46,8.745166 35.254834,-2 22,-2 Z M22,2 C33.045695,2 42,10.954305 42,22 C42,33.045695 33.045695,42 22,42 C10.954305,42 2,33.045695 2,22 C2,10.954305 10.954305,2 22,2 Z" id="Oval" fill="#CCCCCC" fill-rule="nonzero"></path>
                <path d="M10,20 C11.1045695,20 12,20.8954305 12,22 C12,27.5228475 16.4771525,32 22,32 C23.1045695,32 24,32.8954305 24,34 C24,35.1045695 23.1045695,36 22,36 C14.2680135,36 8,29.7319865 8,22 C8,20.8954305 8.8954305,20 10,20 Z" id="Oval" fill="#E3E3E3" fill-rule="nonzero"></path>
            </g>
            <path d="M184,28 C185.104569,28 186,28.8954305 186,30 L186,34 L190,34 C191.104569,34 192,34.8954305 192,36 C192,37.1045695 191.104569,38 190,38 L186,38 L186,42 C186,43.1045695 185.104569,44 184,44 C182.895431,44 182,43.1045695 182,42 L182,38 L178,38 C176.895431,38 176,37.1045695 176,36 C176,34.8954305 176.895431,34 178,34 L182,34 L182,30 C182,28.8954305 182.895431,28 184,28 Z" id="Rectangle-4" fill="#E3E3E3"></path>
            <path d="M54,0 C55.1045695,-2.02906125e-16 56,0.8954305 56,2 L56,4 L58,4 C59.1045695,4 60,4.8954305 60,6 C60,7.1045695 59.1045695,8 58,8 L56,8 L56,10 C56,11.1045695 55.1045695,12 54,12 C52.8954305,12 52,11.1045695 52,10 L52,8 L50,8 C48.8954305,8 48,7.1045695 48,6 C48,4.8954305 48.8954305,4 50,4 L52,4 L52,2 C52,0.8954305 52.8954305,2.02906125e-16 54,0 Z" id="Rectangle-4" fill="#E3E3E3"></path>
            <path d="M6,62 C1.581722,62 -2,65.581722 -2,70 C-2,74.418278 1.581722,78 6,78 C10.418278,78 14,74.418278 14,70 C14,65.581722 10.418278,62 6,62 Z M6,66 C8.209139,66 10,67.790861 10,70 C10,72.209139 8.209139,74 6,74 C3.790861,74 2,72.209139 2,70 C2,67.790861 3.790861,66 6,66 Z" id="Oval" fill="#E3E3E3" fill-rule="nonzero"></path>
            <circle id="Oval-2" fill="#E3E3E3" cx="204" cy="72" r="4"></circle>
        </g>
    </g>
</svg>